<?xml version="1.0" encoding="UTF-8" standalone="no"?>
<!-- Created with Inkscape (http://www.inkscape.org/) -->

<svg
   width="51.595612mm"
   height="17.991667mm"
   viewBox="0 0 51.595612 17.991667"
   version="1.1"
   id="svg5221"
   xmlns="http://www.w3.org/2000/svg"
   xmlns:svg="http://www.w3.org/2000/svg">
  <defs
     id="defs5218">
    <clipPath
       clipPathUnits="userSpaceOnUse"
       id="clipPath4298">
      <path
         d="M 0,841.89 H 595.28 V 0 H 0 Z"
         id="path4296" />
    </clipPath>
  </defs>
  <g
     id="layer1"
     transform="translate(146.99123,-137.25408)">
    <g
       id="g4292"
       transform="matrix(0.1126818,0,0,-0.1126818,-160.8805,161.11043)">
      <g
         id="g4294"
         clip-path="url(#clipPath4298)">
        <g
           id="g4300"
           transform="translate(418.8799,131.9492)">
          <path
             d="m 0,0 v 0.116 c 0,11.933 9.357,21.289 22.049,21.289 7.194,0 12.282,-2.221 16.61,-5.965 L 31.991,7.427 c -2.924,2.457 -5.847,3.861 -9.885,3.861 -5.906,0 -10.468,-4.971 -10.468,-11.229 v -0.118 c 0,-6.608 4.621,-11.345 11.112,-11.345 2.749,0 4.854,0.584 6.551,1.695 v 4.972 H 21.23 V 3.567 H 40.063 V -14.855 C 35.734,-18.423 29.711,-21.172 22.282,-21.172 9.532,-21.172 0,-12.398 0,0"
             style="fill:#000000;fill-opacity:1;fill-rule:nonzero;stroke:none"
             id="path4302" />
        </g>
        <g
           id="g4304"
           transform="translate(489.0664,132.8848)">
          <path
             d="m 0,0 c 3.859,0 6.082,1.872 6.082,4.854 v 0.118 c 0,3.216 -2.339,4.854 -6.141,4.854 H -7.486 V 0 Z M -18.832,19.652 H 0.526 c 6.259,0 10.586,-1.637 13.335,-4.445 2.397,-2.34 3.625,-5.498 3.625,-9.534 V 5.557 c 0,-6.258 -3.333,-10.411 -8.421,-12.575 l 9.767,-14.271 H 5.731 L -2.515,-8.89 h -0.117 -4.854 v -12.399 h -11.346 z"
             style="fill:#000000;fill-opacity:1;fill-rule:nonzero;stroke:none"
             id="path4306" />
        </g>
        <path
           d="m 519.304,152.537 h 11.405 v -40.941 h -11.405 z"
           style="fill:#000000;fill-opacity:1;fill-rule:nonzero;stroke:none"
           id="path4308" />
        <g
           id="g4310"
           transform="translate(382.4971,63.4521)">
          <path
             d="M 0,0 V 24.688 H -11.405 V -11.404 H 25.6 V 0 Z"
             style="fill:#8fd169;fill-opacity:1;fill-rule:nonzero;stroke:none"
             id="path4312" />
        </g>
        <g
           id="g4314"
           transform="translate(558.2217,121.6553)">
          <path
             d="M 0,0 C 6.785,0 11.288,3.744 11.288,10.353 V 10.47 C 11.288,17.02 6.785,20.821 0,20.821 H -4.62 V 0 Z m -15.966,30.882 h 15.791 c 14.621,0 23.102,-8.423 23.102,-20.236 v -0.118 c 0,-11.815 -8.597,-20.588 -23.335,-20.588 h -15.558 z"
             style="fill:#000000;fill-opacity:1;fill-rule:nonzero;stroke:none"
             id="path4316" />
        </g>
        <g
           id="g4318"
           transform="translate(371.0918,211.7139)">
          <path
             d="m 0,0 v -111.469 h 11.276 v 100.194 h 137.116 v -36.921 h 11.276 V 0 Z"
             style="fill:#000000;fill-opacity:1;fill-rule:nonzero;stroke:none"
             id="path4320" />
        </g>
        <g
           id="g4322"
           transform="translate(519.4834,100.2441)">
          <path
             d="M 0,0 V -36.921 H -100.542 V -48.197 H 11.276 V 0 Z"
             style="fill:#000000;fill-opacity:1;fill-rule:nonzero;stroke:none"
             id="path4324" />
        </g>
        <g
           id="g4326"
           transform="translate(428.2549,88.2939)">
          <path
             d="m 0,0 c -4.495,0 -7.587,3.154 -7.587,7.424 v 0.04 c 0,4.103 3.194,7.463 7.566,7.463 2.598,0 4.165,-0.7 5.67,-1.978 L 3.648,10.537 C 2.535,11.464 1.547,12 -0.124,12 -2.434,12 -4.269,9.96 -4.269,7.506 V 7.464 c 0,-2.64 1.815,-4.577 4.373,-4.577 1.153,0 2.184,0.29 2.989,0.866 V 5.814 H -0.104 V 8.558 H 6.165 V 2.289 C 4.68,1.03 2.64,0 0,0"
             style="fill:#000000;fill-opacity:1;fill-rule:nonzero;stroke:none"
             id="path4328" />
        </g>
        <g
           id="g4330"
           transform="translate(444.0801,97.2842)">
          <path
             d="M 0,0 C -1.3,0 -2.145,-0.928 -2.393,-2.35 H 2.329 C 2.144,-0.949 1.318,0 0,0 m 5.339,-4.309 h -7.69 c 0.309,-1.423 1.299,-2.166 2.701,-2.166 1.051,0 1.814,0.331 2.68,1.135 L 4.824,-6.929 C 3.793,-8.205 2.309,-8.991 0.309,-8.991 c -3.32,0 -5.774,2.331 -5.774,5.713 v 0.04 c 0,3.155 2.248,5.753 5.465,5.753 3.689,0 5.38,-2.867 5.38,-6 v -0.04 c 0,-0.311 -0.021,-0.496 -0.041,-0.784"
             style="fill:#000000;fill-opacity:1;fill-rule:nonzero;stroke:none"
             id="path4332" />
        </g>
        <g
           id="g4334"
           transform="translate(461.4502,88.542)">
          <path
             d="M 0,0 V 6.165 C 0,7.65 -0.701,8.412 -1.897,8.412 -3.093,8.412 -3.856,7.65 -3.856,6.165 V 0 H -6.99 v 11.051 h 3.134 V 9.484 c 0.721,0.928 1.649,1.773 3.237,1.773 2.37,0 3.751,-1.567 3.751,-4.102 L 3.132,0 Z"
             style="fill:#000000;fill-opacity:1;fill-rule:nonzero;stroke:none"
             id="path4336" />
        </g>
        <g
           id="g4338"
           transform="translate(490.8994,88.459)">
          <path
             d="m 0,0 h -2.846 l -4.349,11.134 h 3.319 l 2.475,-7.403 2.494,7.403 h 3.259 z"
             style="fill:#000000;fill-opacity:1;fill-rule:nonzero;stroke:none"
             id="path4340" />
        </g>
        <g
           id="g4342"
           transform="translate(475.083,97.2842)">
          <path
             d="M 0,0 C -1.3,0 -2.145,-0.928 -2.393,-2.35 H 2.329 C 2.144,-0.949 1.318,0 0,0 m 5.339,-4.309 h -7.69 c 0.309,-1.423 1.299,-2.166 2.701,-2.166 1.051,0 1.814,0.331 2.68,1.135 L 4.824,-6.929 C 3.793,-8.205 2.309,-8.991 0.309,-8.991 c -3.32,0 -5.774,2.331 -5.774,5.713 v 0.04 c 0,3.155 2.248,5.753 5.465,5.753 3.689,0 5.38,-2.867 5.38,-6 v -0.04 c 0,-0.311 -0.021,-0.496 -0.041,-0.784"
             style="fill:#000000;fill-opacity:1;fill-rule:nonzero;stroke:none"
             id="path4344" />
        </g>
        <g
           id="g4346"
           transform="translate(504.5967,90.6006)">
          <path
             d="M 0,0 C 0.793,0 1.427,0.191 1.903,0.572 2.38,0.954 2.619,1.453 2.619,2.068 V 2.662 C 2.324,2.795 1.998,2.9 1.64,2.981 1.279,3.063 0.895,3.103 0.484,3.103 -0.234,3.103 -0.799,2.963 -1.209,2.685 -1.62,2.406 -1.826,2.002 -1.826,1.475 V 1.431 c 0,-0.454 0.169,-0.807 0.507,-1.056 C -0.982,0.125 -0.543,0 0,0 m -1.012,-2.31 c -0.557,0 -1.082,0.078 -1.572,0.232 -0.492,0.154 -0.921,0.385 -1.287,0.693 -0.367,0.308 -0.657,0.686 -0.869,1.133 -0.213,0.447 -0.32,0.964 -0.32,1.551 v 0.044 c 0,0.645 0.118,1.202 0.353,1.672 0.234,0.469 0.561,0.858 0.978,1.166 0.418,0.307 0.916,0.539 1.497,0.692 0.579,0.154 1.22,0.231 1.924,0.231 0.601,0 1.126,-0.043 1.574,-0.131 C 1.713,4.885 2.148,4.768 2.574,4.621 V 4.818 C 2.574,5.522 2.361,6.059 1.937,6.425 1.511,6.791 0.881,6.975 0.045,6.975 -0.602,6.975 -1.17,6.92 -1.66,6.81 -2.152,6.699 -2.669,6.542 -3.211,6.336 l -0.836,2.553 c 0.645,0.278 1.319,0.506 2.024,0.681 0.704,0.176 1.554,0.264 2.551,0.264 0.925,0 1.712,-0.113 2.366,-0.34 C 3.546,9.266 4.085,8.939 4.51,8.515 4.95,8.074 5.273,7.535 5.479,6.897 5.684,6.26 5.787,5.545 5.787,4.752 V -2.09 H 2.553 v 1.277 C 2.142,-1.268 1.65,-1.631 1.078,-1.902 0.506,-2.174 -0.19,-2.31 -1.012,-2.31"
             style="fill:#000000;fill-opacity:1;fill-rule:nonzero;stroke:none"
             id="path4348" />
        </g>
        <g
           id="g4350"
           transform="translate(299.5752,155.3311)">
          <path
             d="m 0,0 c -8.842,2.67 -15.28,10.875 -15.28,20.594 0,1.752 0.213,3.461 0.61,5.088 l 13.962,-1.793 c 0,0 5.363,-0.241 5.163,-9.731 C 4.264,4.951 0,0 0,0"
             style="fill:#000000;fill-opacity:1;fill-rule:nonzero;stroke:none"
             id="path4352" />
        </g>
        <g
           id="g4354"
           transform="translate(312.0596,155.3311)">
          <path
             d="m 0,0 c 8.837,2.67 15.277,10.875 15.277,20.594 0,1.752 -0.207,3.461 -0.606,5.088 L 0.706,23.889 c 0,0 -5.361,-0.241 -5.168,-9.731 C -4.265,4.951 0,0 0,0"
             style="fill:#000000;fill-opacity:1;fill-rule:nonzero;stroke:none"
             id="path4356" />
        </g>
        <g
           id="g4358"
           transform="translate(305.8154,191.3252)">
          <path
             d="M 0,0 C 1.799,0 3.255,-1.462 3.255,-3.26 3.255,-4.658 2.297,-5.702 1.129,-6.322 0.99,-6.4 0.854,-6.463 0.883,-6.681 0.913,-6.919 1.578,-7.044 1.863,-7.109 L 20.644,-9.287 C 18.006,-0.387 9.767,6.104 0.013,6.104 h -0.026 c -9.752,0 -17.992,-6.491 -20.624,-15.391 l 18.771,2.178 c 0.285,0.065 0.954,0.19 0.984,0.428 0.03,0.218 -0.107,0.281 -0.246,0.359 -1.168,0.62 -2.128,1.664 -2.128,3.062 C -3.256,-1.462 -1.802,0 0,0"
             style="fill:#000000;fill-opacity:1;fill-rule:nonzero;stroke:none"
             id="path4360" />
        </g>
        <g
           id="g4362"
           transform="translate(314.3906,140.1055)">
          <path
             d="m 0,0 1.272,0.8 c 0,0 -6.036,8.178 -19.535,8.178 -6.91,0 -10.484,-2.784 -15.329,-2.784 0,0 -1.984,-0.234 -3.891,0.955 0,0 2.302,-3.334 10.643,-3.334 6.115,0 10.482,3.571 14.769,3.571 C -6.189,7.386 -1.826,2.146 0,0"
             style="fill:#000000;fill-opacity:1;fill-rule:nonzero;stroke:none"
             id="path4364" />
        </g>
        <g
           id="g4366"
           transform="translate(295.6548,140.1055)">
          <path
             d="m 0,0 -1.271,0.8 c 0,0 6.03,8.178 19.534,8.178 6.904,0 10.481,-2.784 15.32,-2.784 0,0 1.988,-0.234 3.896,0.955 0,0 -2.305,-3.334 -10.642,-3.334 -6.116,0 -10.483,3.571 -14.766,3.571 C 6.19,7.386 1.821,2.146 0,0"
             style="fill:#000000;fill-opacity:1;fill-rule:nonzero;stroke:none"
             id="path4368" />
        </g>
        <g
           id="g4370"
           transform="translate(289.2173,149.7939)">
          <path
             d="m 0,0 c -0.238,-0.629 -2.811,0.118 -4.565,-0.4 -1.954,-0.571 -12.268,-1.823 -16.798,8.903 0,0 4.287,-4.607 7.626,-4.926 3.335,-0.319 6.988,-1.113 10.085,-2.862 l 0.716,-0.156 c 0,0 -0.102,0.318 -0.395,0.476 -0.413,0.218 -3.617,1.258 -5.167,6.354 -0.79,2.621 -0.636,4.527 -0.95,5.875 0,0 3.491,-3.893 4.924,-6.35 C -3.096,4.453 -2.936,1.67 0,0"
             style="fill:#000000;fill-opacity:1;fill-rule:nonzero;stroke:none"
             id="path4372" />
        </g>
        <g
           id="g4374"
           transform="translate(278.6938,155.1992)">
          <path
             d="m 0,0 c -0.26,-0.263 -0.912,0.157 -1.15,0.276 -0.239,0.118 -1.953,0.897 -4.881,1.946 -2.898,1.031 -8.301,5.595 -7.785,13.422 0,0 0.753,-2.94 2.976,-4.883 2.225,-1.948 3.024,-2.188 4.373,-3.776 1.348,-1.586 4.405,-5.201 4.521,-5.162 0.123,0.04 0.16,0.237 -0.074,0.44 -0.241,0.195 -1.036,2.179 -1.551,2.857 -0.516,0.676 -2.061,5.32 0.198,11.041 0,0 2.422,-4.171 2.265,-8.379 C -1.269,3.571 -1.464,4.559 -0.436,1.069 -0.436,1.069 0.121,0.11 0,0"
             style="fill:#000000;fill-opacity:1;fill-rule:nonzero;stroke:none"
             id="path4376" />
        </g>
        <g
           id="g4378"
           transform="translate(271.9429,165.4033)">
          <path
             d="m 0,0 c -0.141,-0.143 -0.752,0.754 -1.228,1.588 -0.48,0.832 -3.813,4.406 -4.25,5.122 -0.436,0.715 -4.164,5.239 -1.349,11.949 0,0 0.278,0.078 0.278,-1.501 0,-1.593 1.468,-5.129 2.66,-6.637 1.191,-1.507 2.263,-3.928 2.501,-6.515 0,0 0.16,-0.479 0.363,-0.514 0.194,-0.041 0.194,0.479 0.194,0.479 0,0 -0.159,2.38 -0.159,4.011 0,1.629 0.719,4.403 2.263,5.993 0,0 0.717,0.798 1.153,1.748 0,0 0.28,0.638 0.676,0.949 0,0 0.316,-4.567 -1.233,-8.812 C 0.315,3.611 -0.195,2.895 0.039,0.594 0.039,0.594 0.08,0.076 0,0"
             style="fill:#000000;fill-opacity:1;fill-rule:nonzero;stroke:none"
             id="path4380" />
        </g>
        <g
           id="g4382"
           transform="translate(269.3296,177.9492)">
          <path
             d="m 0,0 c -0.167,0 -0.279,0.56 -0.362,0.994 -0.081,0.435 -0.556,2.976 -0.874,3.534 -0.319,0.554 -1.511,3.1 -1.548,6.076 -0.042,2.975 1.308,7.032 4.326,10.243 0,0 -0.12,-0.952 -0.912,-3.058 -0.797,-2.104 -0.318,-4.091 -0.237,-4.444 0.077,-0.364 0.36,-2.819 0.36,-3.978 0,-0.909 -0.244,-4.043 -0.441,-4.679 0,0 -0.077,-0.439 0.081,-0.439 0.158,0 0.316,0.357 0.316,0.357 0,0 0.158,2.461 1.984,4.684 1.83,2.228 5.123,3.572 5.638,4.569 0,0 -0.235,-3.491 -4.086,-7.584 C 0.811,2.63 1.819,4.485 0.709,1.511 c 0,0 -0.474,-1.115 -0.474,-1.35 C 0.235,-0.077 0,0 0,0"
             style="fill:#000000;fill-opacity:1;fill-rule:nonzero;stroke:none"
             id="path4384" />
        </g>
        <g
           id="g4386"
           transform="translate(271.4312,189.7021)">
          <path
             d="M 0,0 C 0,0 -0.079,0.477 0.517,1.547 1.11,2.623 0.478,4.523 1.27,7.309 c 0.793,2.777 2.267,7.545 7.861,10.402 0,0 -0.56,-0.517 -0.829,-0.916 C 8.018,16.401 6.51,13.541 6.074,11.559 5.638,9.57 3.73,6.235 3.017,5.48 2.306,4.724 2.619,4.646 2.619,4.646 c 0,0 0.356,0.078 0.718,0.635 0.354,0.557 2.183,2.623 4.205,3.096 2.025,0.479 5.246,1.432 5.443,1.632 0,0 -3.494,-3.573 -6.71,-5.4 C 3.057,2.781 2.701,3.336 0.796,0.877 0.796,0.877 0.159,0 0,0"
             style="fill:#000000;fill-opacity:1;fill-rule:nonzero;stroke:none"
             id="path4388" />
        </g>
        <g
           id="g4390"
           transform="translate(279.1289,200.3057)">
          <path
             d="m 0,0 c 0,0 0,0.318 0.598,0.873 0.594,0.557 1.195,2.223 2.224,3.772 1.032,1.546 3.377,5.603 9.45,6.554 0,0 -1.823,-1.352 -2.1,-1.791 C 9.893,8.971 8.104,6.632 7.31,5.836 6.515,5.043 4.252,3.375 3.501,3.015 c 0,0 -0.396,-0.316 -0.324,-0.433 0.081,-0.121 0.477,0.117 0.477,0.117 0,0 2.104,1.627 4.653,1.706 2.538,0.081 5.196,-0.039 5.591,-0.079 0,0 -2.381,-1.627 -8.056,-2.663 C 0.164,0.636 1.235,0.597 0.361,0.037 0.361,0.037 0.164,-0.121 0,0"
             style="fill:#000000;fill-opacity:1;fill-rule:nonzero;stroke:none"
             id="path4392" />
        </g>
        <g
           id="g4394"
           transform="translate(289.2544,206.8965)">
          <path
             d="m 0,0 c 0,0 0.123,0.315 1.032,0.592 0.917,0.279 0.837,1.155 3.617,2.624 2.779,1.469 5.679,2.147 8.619,0.916 0,0 -1.231,-0.16 -1.432,-0.24 C 11.635,3.812 9.533,3.256 8.94,2.938 8.34,2.622 5.286,1.272 4.055,1.036 2.827,0.798 3.419,0.714 3.419,0.714 c 0,0 0.279,-0.122 0.519,-0.122 0.236,0 2.975,0.279 4.765,-0.355 1.786,-0.636 1.746,-0.874 2.459,-1.109 0.715,-0.238 1.545,-0.398 1.667,-0.676 0,0 -1.785,-0.16 -2.859,-0.16 -1.074,0 -3.89,0.275 -5.24,0.915 C 3.378,-0.159 1.83,0.121 1.316,0 0.8,-0.119 0.16,-0.119 0,0"
             style="fill:#000000;fill-opacity:1;fill-rule:nonzero;stroke:none"
             id="path4396" />
        </g>
        <g
           id="g4398"
           transform="translate(300.5391,208.2842)">
          <path
             d="m 0,0 c 0,0 0.109,0.16 0.908,0.324 0.799,0.155 0.996,0.629 2.861,1.027 1.865,0.398 4.762,0.758 7.425,-1.072 0,0 -1.631,0.045 -1.986,0.045 -0.356,0 -3.456,-0.56 -4.172,-0.56 -0.712,0 -2.14,0.321 -2.342,0.083 -0.196,-0.242 1.316,-0.562 1.55,-0.638 0.238,-0.08 1.31,-0.161 2.663,-1.469 1.344,-1.31 2.301,-2.022 2.455,-2.105 0,0 -3.966,0.915 -4.964,1.469 C 3.41,-2.343 1.707,-0.635 1.426,-0.517 1.148,-0.395 0,0 0,0"
             style="fill:#000000;fill-opacity:1;fill-rule:nonzero;stroke:none"
             id="path4400" />
        </g>
        <g
           id="g4402"
           transform="translate(309.708,206.6572)">
          <path
             d="m 0,0 c 0,0 2.501,0.08 4.328,-1.07 1.823,-1.151 3.292,-2.659 3.453,-3.57 0,0 -1.035,0.87 -1.708,1.066 C 5.398,-3.375 3.495,-2.305 3.098,-2.066 2.696,-1.823 0.395,-0.353 0,0"
             style="fill:#000000;fill-opacity:1;fill-rule:nonzero;stroke:none"
             id="path4404" />
        </g>
        <g
           id="g4406"
           transform="translate(321.4629,149.3584)">
          <path
             d="m 0,0 c 0,0 0.356,0.359 1.55,1.391 1.184,1.033 1.506,2.54 2.814,4.883 1.31,2.347 2.427,3.975 5.087,6.355 0,0 -0.476,-1.788 -0.525,-2.346 C 8.894,9.73 8.453,6.633 6.946,4.85 5.436,3.058 5.36,2.656 3.611,1.59 c 0,0 -0.675,-0.477 -0.636,-0.641 0.04,-0.154 1.19,0.041 1.19,0.041 0,0 1.271,0.481 1.667,0.717 0.398,0.238 2.19,1.155 2.897,1.434 0.722,0.277 1.311,0.552 2.901,1.028 1.591,0.477 7.346,1.944 9.609,5.599 0,0 -0.676,-2.143 -1.507,-3.135 C 18.896,5.643 14.17,-0.6 7.624,-0.475 c 0,0 -2.583,0.2 -3.936,0.437 C 2.338,0.195 1.864,0.195 1.665,0.158 1.467,0.123 0.192,-0.116 0,0"
             style="fill:#000000;fill-opacity:1;fill-rule:nonzero;stroke:none"
             id="path4408" />
        </g>
        <g
           id="g4410"
           transform="translate(336.1113,171.6377)">
          <path
             d="m 0,0 c 0,0 -2.461,-3.854 -3.019,-9.412 -0.555,-5.561 0.399,-3.891 -0.514,-6.35 0,0 -0.321,-0.64 -0.197,-0.679 0.119,-0.041 0.595,0.241 2.342,1.309 1.743,1.075 3.455,0.753 7.184,4.327 3.731,3.576 4.49,10.684 4.568,11.278 0,0 -0.559,-0.555 -0.837,-1.506 C 9.251,-1.986 8.659,-2.742 8.536,-2.858 8.418,-2.98 4.372,-7.426 3.895,-7.828 3.416,-8.223 1.03,-11.12 0.514,-11.953 c -0.514,-0.838 -2.021,-2.346 -2.3,-2.226 0,0 0.038,0.36 0.158,0.635 0.121,0.28 1.23,1.786 1.704,3.536 0.479,1.748 0.595,2.82 0.639,3.932 C 0.752,-4.969 0.046,-0.875 0,0"
             style="fill:#000000;fill-opacity:1;fill-rule:nonzero;stroke:none"
             id="path4412" />
        </g>
        <g
           id="g4414"
           transform="translate(339.4482,166.2754)">
          <path
             d="m 0,0 c 0,0 -0.243,0.573 -0.037,0.995 0.113,0.234 0.237,2.139 -0.48,3.692 -0.712,1.544 -2.258,5.835 -2.149,8.69 0.119,2.86 0.442,3.259 0.442,3.259 0,0 0.792,-2.346 1.033,-2.738 C -0.954,13.503 1.425,9.29 1.228,6.988 1.035,4.687 0.911,3.97 1.035,3.927 c 0.118,-0.035 0.39,0.281 0.433,0.556 0.043,0.28 0.437,1.871 1.194,3.735 0.755,1.867 3.806,5.997 4.482,8.736 0,0 0.996,-4.764 -1.664,-9.211 C 2.817,3.296 2.543,4.286 1.425,2.263 0.32,0.237 0.157,0 0,0"
             style="fill:#000000;fill-opacity:1;fill-rule:nonzero;stroke:none"
             id="path4416" />
        </g>
        <g
           id="g4418"
           transform="translate(341.8721,178.8643)">
          <path
             d="m 0,0 c -0.201,0.039 -0.079,1.867 -0.565,2.458 -0.463,0.597 -4.562,5.443 -5.433,10.287 0,0 2.577,-2.624 3.021,-2.899 C -2.543,9.568 -0.798,7.82 -0.28,6.316 0.234,4.799 0.119,3.532 0.316,3.49 c 0.2,-0.036 0.2,1.672 0.2,1.672 0,0 0.037,3.336 0.314,4.92 0.278,1.586 0.997,4.251 0.678,5.598 0,0 1.549,-2.458 1.466,-5.953 C 2.895,6.232 1.426,3.454 1.229,3.055 1.032,2.656 0.476,0.951 0.476,0.596 0.476,0.233 0,0 0,0"
             style="fill:#000000;fill-opacity:1;fill-rule:nonzero;stroke:none"
             id="path4420" />
        </g>
        <g
           id="g4422"
           transform="translate(337.0264,203.7197)">
          <path
             d="m 0,0 c 0,0 5.357,-3.176 4.525,-13.818 0,0 0,-0.479 -0.316,0.039 -0.319,0.517 -1.467,1.982 -1.987,2.304 -0.512,0.32 -5.279,3.215 -7.305,7.666 0,0 0.314,0.08 0.794,-0.362 0.478,-0.436 1.946,-1.192 2.185,-1.309 0.236,-0.123 1.904,-0.557 3.139,-1.904 1.223,-1.352 1.662,-2.345 2.025,-3.138 0,0 0.352,-0.281 0.116,0.512 -0.238,0.797 -0.28,1.313 -0.918,2.309 C 1.626,-6.709 1.07,-4.924 0.99,-3.695 0.909,-2.463 0.554,-0.637 0,0"
             style="fill:#000000;fill-opacity:1;fill-rule:nonzero;stroke:none"
             id="path4424" />
        </g>
        <g
           id="g4426"
           transform="translate(336.1113,199.9912)">
          <path
             d="m 0,0 c 0,0 0.123,0.713 -0.398,1.707 -0.516,0.987 -0.114,2.095 -1.744,4.725 -0.917,1.466 -4.093,2.615 -4.093,2.615 0,0 0.918,-1.271 1.508,-1.984 0.599,-0.715 0.8,-1.228 0.997,-1.59 0.197,-0.354 1.299,-1.412 1.708,-2.024 0.08,-0.12 0.236,-0.435 0.236,-0.636 0,-0.194 -0.437,0.124 -0.555,0.244 -0.12,0.113 -2.066,1.584 -3.296,1.823 -1.237,0.239 -3.576,0.479 -4.209,0.796 0,0 2.78,-2.506 5.793,-3.256 C -1.031,1.664 0,0 0,0"
             style="fill:#000000;fill-opacity:1;fill-rule:nonzero;stroke:none"
             id="path4428" />
        </g>
        <g
           id="g4430"
           transform="translate(329.8398,206.54)">
          <path
             d="m 0,0 c 0,0 -2.775,3.771 -7.744,3.693 0,0 0.28,-0.283 0.834,-0.399 0.554,-0.12 1.548,-1.11 2.067,-1.428 C -4.332,1.547 -3.257,0.756 0,0"
             style="fill:#000000;fill-opacity:1;fill-rule:nonzero;stroke:none"
             id="path4432" />
        </g>
        <g
           id="g4434"
           transform="translate(177.439,211.7139)">
          <path
             d="m 0,0 v -46.654 c 0,-4.079 -0.681,-7.677 -2.042,-10.797 -1.356,-3.126 -3.238,-5.739 -5.629,-7.843 -2.397,-2.105 -5.253,-3.686 -8.57,-4.759 -3.321,-1.063 -6.937,-1.601 -10.849,-1.601 -3.95,0 -7.583,0.538 -10.899,1.601 -3.315,1.073 -6.171,2.654 -8.569,4.759 -2.397,2.104 -4.263,4.717 -5.604,7.843 -1.344,3.12 -2.016,6.718 -2.016,10.797 V 0 h 14.563 v -46.654 c 0,-4.625 1.108,-8.002 3.326,-10.116 2.217,-2.126 5.28,-3.185 9.199,-3.185 3.948,0 7.014,1.059 9.199,3.185 2.182,2.114 3.274,5.491 3.274,10.116 V 0 Z"
             style="fill:#000000;fill-opacity:1;fill-rule:nonzero;stroke:none"
             id="path4436" />
        </g>
        <g
           id="g4438"
           transform="translate(246.8525,141.0283)">
          <path
             d="M 0,0 H -14.561 L -42.91,46.511 V 0 h -14.563 v 70.686 h 14.563 l 28.399,-46.6 v 46.6 H 0 Z"
             style="fill:#000000;fill-opacity:1;fill-rule:nonzero;stroke:none"
             id="path4440" />
        </g>
        <g
           id="g4442"
           transform="translate(130.0322,113)">
          <path
             d="M 0,0 C -0.734,-0.756 -1.196,-1.781 -1.382,-3.074 H 7.565 C 7.471,-1.695 7.01,-0.65 6.182,0.064 5.353,0.777 4.327,1.135 3.102,1.135 1.767,1.135 0.734,0.758 0,0 m 7.771,4.487 c 1.385,-0.621 2.53,-1.6 3.433,-2.938 0.813,-1.181 1.341,-2.55 1.584,-4.108 0.138,-0.912 0.195,-2.226 0.17,-3.942 H -1.51 c 0.079,-1.992 0.771,-3.391 2.076,-4.192 0.793,-0.498 1.749,-0.748 2.864,-0.748 1.184,0 2.145,0.304 2.885,0.912 0.403,0.328 0.758,0.783 1.07,1.367 h 5.302 c -0.14,-1.18 -0.782,-2.375 -1.926,-3.591 -1.78,-1.932 -4.269,-2.897 -7.474,-2.897 -2.643,0 -4.976,0.814 -6.997,2.443 -2.021,1.631 -3.032,4.281 -3.032,7.953 0,3.442 0.913,6.082 2.737,7.918 1.824,1.836 4.192,2.754 7.105,2.754 1.727,0 3.285,-0.311 4.671,-0.931"
             style="fill:#000000;fill-opacity:1;fill-rule:nonzero;stroke:none"
             id="path4444" />
        </g>
        <g
           id="g4446"
           transform="translate(161.6367,116.75)">
          <path
             d="m 0,0 c 1.3,-1.074 1.95,-2.857 1.95,-5.348 v -13.379 h -5.321 v 12.084 c 0,1.045 -0.138,1.847 -0.416,2.407 -0.507,1.02 -1.472,1.53 -2.895,1.53 -1.75,0 -2.949,-0.746 -3.6,-2.241 -0.338,-0.79 -0.508,-1.8 -0.508,-3.026 v -10.754 h -5.193 V 1.104 h 5.029 v -2.899 c 0.666,1.022 1.296,1.756 1.888,2.205 1.065,0.803 2.414,1.203 4.047,1.203 C -2.973,1.613 -1.302,1.076 0,0"
             style="fill:#000000;fill-opacity:1;fill-rule:nonzero;stroke:none"
             id="path4448" />
        </g>
        <g
           id="g4450"
           transform="translate(180.6553,117.8906)">
          <path
             d="M 0,0 H 5.577 L -1.596,-19.867 H -7.073 L -14.198,0 h 5.833 l 4.137,-14.654 z"
             style="fill:#000000;fill-opacity:1;fill-rule:nonzero;stroke:none"
             id="path4452" />
        </g>
        <path
           d="m 189.25,117.891 h 5.267 V 98.024 h -5.267 z m 5.266,2.368 h -5.267 v 4.794 h 5.267 z"
           style="fill:#000000;fill-opacity:1;fill-rule:nonzero;stroke:none"
           id="path4454" />
        <g
           id="g4456"
           transform="translate(210.582,118.3545)">
          <path
             d="m 0,0 c 0.066,-0.007 0.216,-0.015 0.446,-0.027 v -5.322 c -0.327,0.036 -0.619,0.061 -0.874,0.073 -0.255,0.011 -0.462,0.019 -0.62,0.019 -2.09,0 -3.494,-0.681 -4.21,-2.043 -0.402,-0.764 -0.602,-1.943 -0.602,-3.535 v -9.496 h -5.23 v 19.867 h 4.956 v -3.464 c 0.803,1.324 1.501,2.23 2.097,2.716 0.971,0.815 2.234,1.221 3.791,1.221 C -0.149,0.009 -0.067,0.006 0,0"
             style="fill:#000000;fill-opacity:1;fill-rule:nonzero;stroke:none"
             id="path4458" />
        </g>
        <g
           id="g4460"
           transform="translate(226.4839,103.3242)">
          <path
             d="M 0,0 C 0.814,1.08 1.222,2.615 1.222,4.605 1.222,6.596 0.814,8.127 0,9.2 c -0.815,1.073 -1.98,1.611 -3.5,1.611 -1.518,0 -2.687,-0.538 -3.508,-1.611 -0.82,-1.073 -1.23,-2.604 -1.23,-4.595 0,-1.99 0.41,-3.525 1.23,-4.605 0.821,-1.078 1.99,-1.619 3.508,-1.619 1.52,0 2.685,0.541 3.5,1.619 m 4.155,-2.87 c -1.676,-2.069 -4.222,-3.105 -7.636,-3.105 -3.415,0 -5.96,1.036 -7.637,3.105 -1.676,2.069 -2.514,4.561 -2.514,7.475 0,2.866 0.838,5.348 2.514,7.448 1.677,2.1 4.222,3.15 7.637,3.15 3.414,0 5.96,-1.05 7.636,-3.15 1.678,-2.1 2.514,-4.582 2.514,-7.448 0,-2.914 -0.836,-5.406 -2.514,-7.475"
             style="fill:#000000;fill-opacity:1;fill-rule:nonzero;stroke:none"
             id="path4462" />
        </g>
        <g
           id="g4464"
           transform="translate(252.8916,116.75)">
          <path
             d="M 0,0 C 1.301,-1.074 1.951,-2.857 1.951,-5.348 V -18.727 H -3.37 v 12.084 c 0,1.045 -0.139,1.847 -0.416,2.407 -0.507,1.02 -1.472,1.53 -2.895,1.53 -1.75,0 -2.949,-0.746 -3.6,-2.241 -0.338,-0.79 -0.507,-1.8 -0.507,-3.026 v -10.754 h -5.195 V 1.104 h 5.031 v -2.899 c 0.664,1.022 1.294,1.756 1.887,2.205 C -8,1.213 -6.651,1.613 -5.019,1.613 -2.973,1.613 -1.301,1.076 0,0"
             style="fill:#000000;fill-opacity:1;fill-rule:nonzero;stroke:none"
             id="path4466" />
        </g>
        <g
           id="g4468"
           transform="translate(284.459,117.8164)">
          <path
             d="M 0,0 C 0.851,-0.34 1.62,-0.935 2.314,-1.785 2.872,-2.479 3.25,-3.329 3.443,-4.337 3.565,-5.006 3.627,-5.984 3.627,-7.271 L 3.59,-19.793 h -5.32 v 12.649 c 0,0.753 -0.124,1.373 -0.366,1.859 -0.462,0.924 -1.313,1.386 -2.552,1.386 -1.433,0 -2.423,-0.597 -2.971,-1.787 -0.279,-0.632 -0.418,-1.391 -0.418,-2.279 v -11.828 h -5.231 v 11.828 c 0,1.179 -0.122,2.035 -0.364,2.57 -0.438,0.96 -1.294,1.44 -2.571,1.44 -1.482,0 -2.478,-0.48 -2.988,-1.44 -0.28,-0.544 -0.42,-1.361 -0.42,-2.441 v -11.957 h -5.267 v 19.83 h 5.049 v -2.898 c 0.644,1.033 1.251,1.769 1.824,2.205 1.006,0.777 2.313,1.167 3.918,1.167 1.517,0 2.745,-0.334 3.68,-1.003 0.753,-0.619 1.325,-1.415 1.714,-2.387 0.682,1.166 1.525,2.024 2.533,2.57 1.068,0.547 2.262,0.82 3.571,0.82 C -1.713,0.511 -0.851,0.341 0,0"
             style="fill:#000000;fill-opacity:1;fill-rule:nonzero;stroke:none"
             id="path4470" />
        </g>
        <g
           id="g4472"
           transform="translate(298.0356,113)">
          <path
             d="M 0,0 C -0.734,-0.756 -1.195,-1.781 -1.384,-3.074 H 7.564 C 7.469,-1.695 7.007,-0.65 6.18,0.064 5.352,0.777 4.326,1.135 3.099,1.135 1.766,1.135 0.733,0.758 0,0 m 7.77,4.487 c 1.386,-0.621 2.529,-1.6 3.432,-2.938 0.814,-1.181 1.342,-2.55 1.584,-4.108 0.139,-0.912 0.196,-2.226 0.17,-3.942 H -1.512 c 0.08,-1.992 0.774,-3.391 2.077,-4.192 0.793,-0.498 1.747,-0.748 2.864,-0.748 1.183,0 2.146,0.304 2.884,0.912 0.403,0.328 0.76,0.783 1.069,1.367 h 5.302 c -0.139,-1.18 -0.782,-2.375 -1.925,-3.591 -1.779,-1.932 -4.269,-2.897 -7.472,-2.897 -2.645,0 -4.978,0.814 -6.998,2.443 -2.02,1.631 -3.032,4.281 -3.032,7.953 0,3.442 0.913,6.082 2.736,7.918 1.826,1.836 4.194,2.754 7.104,2.754 1.73,0 3.287,-0.311 4.673,-0.931"
             style="fill:#000000;fill-opacity:1;fill-rule:nonzero;stroke:none"
             id="path4474" />
        </g>
        <g
           id="g4476"
           transform="translate(329.6387,116.75)">
          <path
             d="m 0,0 c 1.299,-1.074 1.95,-2.857 1.95,-5.348 v -13.379 h -5.321 v 12.084 c 0,1.045 -0.14,1.847 -0.417,2.407 -0.505,1.02 -1.472,1.53 -2.894,1.53 -1.749,0 -2.949,-0.746 -3.6,-2.241 -0.338,-0.79 -0.507,-1.8 -0.507,-3.026 v -10.754 h -5.193 V 1.104 h 5.029 v -2.899 c 0.665,1.022 1.293,1.756 1.888,2.205 C -8,1.213 -6.65,1.613 -5.019,1.613 -2.974,1.613 -1.301,1.076 0,0"
             style="fill:#000000;fill-opacity:1;fill-rule:nonzero;stroke:none"
             id="path4478" />
        </g>
        <g
           id="g4480"
           transform="translate(334.3779,114.0078)">
          <path
             d="M 0,0 V 3.699 H 2.77 V 9.24 H 7.91 V 3.699 h 3.227 V 0 H 7.91 v -10.498 c 0,-0.815 0.103,-1.32 0.309,-1.522 0.207,-0.201 0.841,-0.3 1.897,-0.3 0.156,0 0.324,0.002 0.499,0.008 0.178,0.007 0.351,0.016 0.522,0.028 v -3.882 l -2.461,-0.091 c -2.454,-0.085 -4.133,0.339 -5.031,1.276 -0.582,0.595 -0.875,1.512 -0.875,2.752 L 2.77,0 Z"
             style="fill:#000000;fill-opacity:1;fill-rule:nonzero;stroke:none"
             id="path4482" />
        </g>
        <g
           id="g4484"
           transform="translate(137.5771,74.1729)">
          <path
             d="m 0,0 c -0.706,1.179 -1.85,1.767 -3.434,1.767 -1.902,0 -3.21,-0.892 -3.921,-2.678 -0.369,-0.947 -0.553,-2.151 -0.553,-3.61 0,-2.308 0.619,-3.931 1.859,-4.866 0.736,-0.548 1.609,-0.821 2.614,-0.821 1.462,0 2.576,0.561 3.344,1.679 0.766,1.116 1.15,2.606 1.15,4.464 C 1.059,-2.533 0.706,-1.179 0,0 m 3.987,3.735 c 1.62,-1.713 2.431,-4.228 2.431,-7.545 0,-3.499 -0.793,-6.166 -2.376,-8.001 -1.583,-1.835 -3.622,-2.752 -6.118,-2.752 -1.59,0 -2.909,0.396 -3.962,1.185 -0.575,0.438 -1.136,1.076 -1.688,1.913 v -10.351 h -5.139 V 5.868 h 4.976 V 2.935 c 0.562,0.861 1.16,1.543 1.797,2.041 1.163,0.886 2.544,1.33 4.146,1.33 2.335,0 4.313,-0.858 5.933,-2.571"
             style="fill:#000000;fill-opacity:1;fill-rule:nonzero;stroke:none"
             id="path4486" />
        </g>
        <g
           id="g4488"
           transform="translate(158.6943,80.5049)">
          <path
             d="m 0,0 c 0.066,-0.007 0.215,-0.015 0.446,-0.026 v -5.323 c -0.328,0.037 -0.62,0.061 -0.875,0.074 -0.255,0.011 -0.462,0.018 -0.62,0.018 -2.09,0 -3.492,-0.68 -4.21,-2.041 -0.402,-0.766 -0.601,-1.945 -0.601,-3.536 v -9.495 h -5.231 v 19.865 h 4.958 v -3.463 c 0.801,1.324 1.499,2.23 2.096,2.717 0.971,0.813 2.234,1.219 3.789,1.219 C -0.15,0.009 -0.067,0.007 0,0"
             style="fill:#000000;fill-opacity:1;fill-rule:nonzero;stroke:none"
             id="path4490" />
        </g>
        <g
           id="g4492"
           transform="translate(174.5952,65.4766)">
          <path
             d="m 0,0 c 0.814,1.08 1.222,2.614 1.222,4.604 0,1.99 -0.408,3.521 -1.222,4.595 -0.815,1.074 -1.982,1.611 -3.499,1.611 -1.52,0 -2.688,-0.537 -3.509,-1.611 -0.819,-1.074 -1.23,-2.605 -1.23,-4.595 0,-1.99 0.411,-3.524 1.23,-4.604 0.821,-1.08 1.989,-1.619 3.509,-1.619 1.517,0 2.684,0.539 3.499,1.619 m 4.156,-2.871 c -1.677,-2.07 -4.222,-3.106 -7.636,-3.106 -3.415,0 -5.96,1.036 -7.637,3.106 -1.677,2.07 -2.515,4.561 -2.515,7.475 0,2.865 0.838,5.347 2.515,7.449 1.677,2.099 4.222,3.149 7.637,3.149 3.414,0 5.959,-1.05 7.636,-3.149 C 5.833,9.951 6.671,7.469 6.671,4.604 6.671,1.69 5.833,-0.801 4.156,-2.871"
             style="fill:#000000;fill-opacity:1;fill-rule:nonzero;stroke:none"
             id="path4494" />
        </g>
        <g
           id="g4496"
           transform="translate(196.5815,65.8164)">
          <path
             d="m 0,0 c 0.834,0.918 1.252,2.377 1.252,4.383 0,1.883 -0.398,3.317 -1.189,4.301 -0.793,0.983 -1.855,1.477 -3.186,1.477 -1.814,0 -3.066,-0.858 -3.757,-2.569 -0.363,-0.912 -0.544,-2.037 -0.544,-3.373 0,-1.155 0.193,-2.182 0.581,-3.08 0.702,-1.678 1.959,-2.514 3.775,-2.514 1.209,0 2.232,0.457 3.068,1.375 m -1.77,14.243 c 1.263,-0.522 2.281,-1.482 3.059,-2.88 v 2.862 H 6.354 V -4.621 c 0,-2.563 -0.431,-4.496 -1.292,-5.795 -1.484,-2.236 -4.327,-3.354 -8.532,-3.354 -2.539,0 -4.61,0.499 -6.214,1.495 -1.603,0.996 -2.491,2.484 -2.661,4.464 h 5.65 c 0.147,-0.606 0.383,-1.044 0.71,-1.312 0.56,-0.473 1.503,-0.709 2.825,-0.709 1.872,0 3.124,0.625 3.756,1.876 0.413,0.803 0.619,2.149 0.619,4.046 v 1.276 c -0.498,-0.85 -1.033,-1.489 -1.604,-1.915 -1.032,-0.789 -2.375,-1.183 -4.028,-1.183 -2.551,0 -4.59,0.895 -6.115,2.689 -1.525,1.791 -2.287,4.219 -2.287,7.28 0,2.952 0.735,5.434 2.204,7.446 1.468,2.01 3.548,3.014 6.241,3.014 0.996,0 1.864,-0.15 2.604,-0.454"
             style="fill:#000000;fill-opacity:1;fill-rule:nonzero;stroke:none"
             id="path4498" />
        </g>
        <g
           id="g4500"
           transform="translate(218.8203,80.5049)">
          <path
             d="m 0,0 c 0.066,-0.007 0.214,-0.015 0.447,-0.026 v -5.323 c -0.33,0.037 -0.621,0.061 -0.876,0.074 -0.255,0.011 -0.462,0.018 -0.62,0.018 -2.09,0 -3.493,-0.68 -4.209,-2.041 -0.402,-0.766 -0.601,-1.945 -0.601,-3.536 v -9.495 h -5.231 v 19.865 h 4.957 v -3.463 c 0.802,1.324 1.5,2.23 2.096,2.717 0.971,0.813 2.235,1.219 3.79,1.219 C -0.15,0.009 -0.067,0.007 0,0"
             style="fill:#000000;fill-opacity:1;fill-rule:nonzero;stroke:none"
             id="path4502" />
        </g>
        <g
           id="g4504"
           transform="translate(233.3545,69.834)">
          <path
             d="m 0,0 c -0.333,-0.206 -0.668,-0.373 -1.006,-0.501 -0.339,-0.128 -0.806,-0.245 -1.395,-0.355 l -1.182,-0.218 c -1.11,-0.196 -1.905,-0.432 -2.39,-0.711 -0.817,-0.475 -1.226,-1.209 -1.226,-2.205 0,-0.888 0.249,-1.529 0.749,-1.924 0.5,-0.395 1.107,-0.593 1.823,-0.593 1.136,0 2.181,0.329 3.138,0.986 0.956,0.656 1.451,1.852 1.489,3.59 z m -3.176,2.425 c 0.967,0.122 1.658,0.272 2.074,0.455 0.747,0.317 1.121,0.808 1.121,1.477 0,0.813 -0.287,1.375 -0.86,1.686 -0.572,0.31 -1.413,0.465 -2.521,0.465 -1.244,0 -2.125,-0.305 -2.641,-0.912 -0.371,-0.45 -0.617,-1.057 -0.74,-1.823 h -5.011 c 0.109,1.738 0.596,3.166 1.462,4.284 1.38,1.749 3.748,2.623 7.104,2.623 2.184,0 4.123,-0.431 5.82,-1.293 C 4.328,8.523 5.177,6.896 5.177,4.502 v -9.113 c 0,-0.631 0.011,-1.397 0.035,-2.295 0.038,-0.681 0.141,-1.144 0.311,-1.386 0.17,-0.243 0.424,-0.444 0.766,-0.601 v -0.765 h -5.65 c -0.159,0.4 -0.268,0.777 -0.33,1.129 -0.059,0.351 -0.109,0.754 -0.144,1.203 -0.722,-0.778 -1.553,-1.44 -2.494,-1.987 -1.125,-0.643 -2.396,-0.965 -3.813,-0.965 -1.809,0 -3.303,0.512 -4.483,1.539 -1.178,1.026 -1.768,2.482 -1.768,4.366 0,2.442 0.948,4.21 2.846,5.304 1.04,0.594 2.57,1.02 4.59,1.276 z"
             style="fill:#000000;fill-opacity:1;fill-rule:nonzero;stroke:none"
             id="path4506" />
        </g>
        <g
           id="g4508"
           transform="translate(267.8569,79.9688)">
          <path
             d="m 0,0 c 0.849,-0.341 1.622,-0.936 2.313,-1.787 0.559,-0.692 0.936,-1.544 1.131,-2.551 0.121,-0.67 0.182,-1.646 0.182,-2.935 l -0.037,-12.52 h -5.321 v 12.648 c 0,0.754 -0.122,1.374 -0.365,1.86 -0.461,0.922 -1.313,1.385 -2.551,1.385 -1.435,0 -2.424,-0.597 -2.972,-1.788 -0.279,-0.63 -0.42,-1.39 -0.42,-2.277 v -11.828 h -5.23 v 11.828 c 0,1.178 -0.121,2.035 -0.364,2.57 -0.437,0.959 -1.294,1.438 -2.57,1.438 -1.482,0 -2.478,-0.479 -2.988,-1.438 -0.279,-0.546 -0.42,-1.362 -0.42,-2.442 v -11.956 h -5.266 V 0.036 h 5.048 v -2.897 c 0.643,1.033 1.252,1.767 1.822,2.205 1.008,0.777 2.315,1.166 3.92,1.166 1.517,0 2.744,-0.334 3.681,-1.002 0.752,-0.621 1.322,-1.416 1.713,-2.389 0.679,1.168 1.524,2.025 2.533,2.57 1.069,0.548 2.26,0.821 3.572,0.821 C -1.715,0.51 -0.852,0.34 0,0"
             style="fill:#000000;fill-opacity:1;fill-rule:nonzero;stroke:none"
             id="path4510" />
        </g>
        <g
           id="g4512"
           transform="translate(301.0439,79.9688)">
          <path
             d="m 0,0 c 0.85,-0.341 1.621,-0.936 2.313,-1.787 0.559,-0.692 0.935,-1.544 1.131,-2.551 0.121,-0.67 0.182,-1.646 0.182,-2.935 L 3.59,-19.793 h -5.323 v 12.648 c 0,0.754 -0.121,1.374 -0.363,1.86 -0.462,0.922 -1.312,1.385 -2.552,1.385 -1.434,0 -2.424,-0.597 -2.971,-1.788 -0.279,-0.63 -0.418,-1.39 -0.418,-2.277 v -11.828 h -5.231 v 11.828 c 0,1.178 -0.122,2.035 -0.364,2.57 -0.438,0.959 -1.296,1.438 -2.571,1.438 -1.482,0 -2.478,-0.479 -2.988,-1.438 -0.281,-0.546 -0.42,-1.362 -0.42,-2.442 v -11.956 h -5.265 V 0.036 h 5.047 v -2.897 c 0.642,1.033 1.252,1.767 1.822,2.205 1.008,0.777 2.316,1.166 3.92,1.166 1.518,0 2.745,-0.334 3.679,-1.002 0.754,-0.621 1.325,-1.416 1.713,-2.389 0.68,1.168 1.527,2.025 2.533,2.57 1.071,0.548 2.26,0.821 3.574,0.821 C -1.715,0.51 -0.852,0.34 0,0"
             style="fill:#000000;fill-opacity:1;fill-rule:nonzero;stroke:none"
             id="path4514" />
        </g>
        <g
           id="g4516"
           transform="translate(314.6201,75.1514)">
          <path
             d="M 0,0 C -0.734,-0.757 -1.195,-1.78 -1.385,-3.075 H 7.564 C 7.471,-1.696 7.01,-0.649 6.181,0.065 5.353,0.778 4.326,1.135 3.1,1.135 1.767,1.135 0.734,0.757 0,0 M 7.771,4.486 C 9.156,3.867 10.3,2.888 11.203,1.548 c 0.814,-1.18 1.342,-2.549 1.583,-4.107 0.139,-0.913 0.197,-2.226 0.172,-3.942 H -1.511 c 0.08,-1.994 0.773,-3.391 2.075,-4.191 0.795,-0.499 1.75,-0.748 2.866,-0.748 1.184,0 2.144,0.303 2.884,0.91 0.403,0.33 0.759,0.784 1.07,1.368 h 5.303 c -0.14,-1.179 -0.783,-2.376 -1.926,-3.591 -1.78,-1.932 -4.272,-2.898 -7.476,-2.898 -2.641,0 -4.975,0.815 -6.997,2.445 -2.019,1.629 -3.03,4.28 -3.03,7.951 0,3.443 0.912,6.083 2.736,7.918 1.824,1.837 4.194,2.756 7.104,2.756 1.729,0 3.287,-0.311 4.673,-0.933"
             style="fill:#000000;fill-opacity:1;fill-rule:nonzero;stroke:none"
             id="path4518" />
        </g>
      </g>
    </g>
  </g>
</svg>
